<svg width="275" height="194" viewBox="0 0 275 194" fill="none" xmlns="http://www.w3.org/2000/svg">
<path d="M205.908 183.294C229.043 164.346 243.803 135.558 243.803 103.324C243.803 46.261 197.542 0 140.479 0C83.4153 0 37.1543 46.261 37.1543 103.324C37.1543 135.558 51.9149 164.346 75.05 183.294C94.3827 182.928 116.702 182.717 140.479 182.717C164.255 182.717 186.575 182.928 205.908 183.294Z" fill="#FFF6F8"/>
<g opacity="0.2">
<path opacity="0.1" d="M242.905 89.6633L236.272 117.389L232.25 73.5466C231.984 70.6879 229.446 68.5714 226.578 68.828L216.325 69.7717C214.942 69.9 213.687 70.5597 212.798 71.6317C211.909 72.7037 211.488 74.0597 211.616 75.4432L212.193 81.7378L212.541 85.4944C209.866 82.5807 206.018 80.7483 201.757 80.7483H200.548L196.828 77.8804C196.47 77.6055 196.012 77.5231 195.582 77.6514C195.151 77.7796 194.812 78.1095 194.665 78.531L193.896 80.7574H167.141V71.8241C167.141 65.3554 161.882 60.0962 155.414 60.0962H130.345C123.877 60.0962 118.617 65.3554 118.617 71.8241V80.7574H84.0017C75.9296 80.7574 69.351 87.3269 69.351 95.4081V102.83L37.2826 101.556C37.2459 101.556 37.2093 101.556 37.1726 101.556C37.1635 102.152 37.1543 102.747 37.1543 103.352C37.1543 135.585 51.9149 164.374 75.05 183.321C94.3827 182.955 116.702 182.744 140.479 182.744C164.255 182.744 186.584 182.955 205.908 183.321C229.043 164.374 243.803 135.585 243.803 103.352C243.803 98.6974 243.492 94.1345 242.905 89.6633ZM155.203 80.7483H130.538V73.0793C130.538 72.4929 131.014 72.0165 131.6 72.0165H154.14C154.726 72.0165 155.203 72.4929 155.203 73.0793V80.7483Z" fill="#6D4C41"/>
</g>
<g opacity="0.3">
<path opacity="0.3" d="M4.20508 187.234C4.20508 184.742 64.7777 182.717 139.506 182.717C214.235 182.717 274.808 184.742 274.808 187.234C274.808 188.672 254.568 189.955 223.049 190.78C216.251 192.392 189.881 193.602 158.39 193.602C132.021 193.602 109.243 192.759 98.5412 191.531C43.8416 190.954 4.20508 189.25 4.20508 187.234Z" fill="#AF0029"/>
</g>
<g opacity="0.2">
<path opacity="0.2" d="M78.6775 119.762L82.0493 119.753C82.4158 119.753 82.7731 119.606 83.0297 119.34C83.2862 119.075 83.4328 118.726 83.4328 118.36V117.379C83.4145 113.046 80.1435 109.472 75.9471 108.968L75.938 107.502C75.9288 104.46 73.5374 101.987 70.5047 101.868L59.8213 101.446V173.582C59.8213 179.381 63.8527 184.265 69.2586 185.566C71.485 184.916 73.1526 182.964 73.3633 180.527L78.6775 119.762Z" fill="#6D4C41"/>
</g>
<g opacity="0.2">
<path opacity="0.1" d="M216.791 173.563V94.1984C216.791 87.9771 212.897 82.6538 207.417 80.5373L209.992 108.593L204.009 89.1408C203.157 86.3737 201.499 83.9732 199.208 82.2048L195.781 79.5569H189.129L187.031 85.6041C186.051 88.4353 186.005 91.4405 186.894 94.2992L196.597 125.543H193.078C192.309 125.543 191.686 126.166 191.686 126.936V184.521C191.686 185.209 192.19 185.777 192.849 185.887H204.467C211.266 185.887 216.791 180.362 216.791 173.563Z" fill="#6D4C41"/>
</g>
<path d="M156.32 86.0076C153.8 85.9618 151.83 83.7994 151.83 81.2798V71.8791C151.83 70.5231 150.731 69.4236 149.375 69.4236H126.835C125.479 69.4236 124.38 70.5231 124.38 71.8791V81.2798C124.38 83.7994 122.41 85.9618 119.89 86.0076C117.325 86.0534 115.227 83.9919 115.227 81.4355V70.6147C115.227 64.9066 119.854 60.2795 125.562 60.2795H150.621C156.329 60.2795 160.956 64.9066 160.956 70.6147V81.4355C160.974 83.9919 158.885 86.0534 156.32 86.0076Z" fill="#AE012C"/>
<path d="M156.402 87.4001C156.365 87.4001 156.329 87.4001 156.292 87.4001C153.067 87.3452 150.437 84.5964 150.437 81.2888V71.879C150.437 71.2926 149.961 70.8162 149.375 70.8162H126.835C126.249 70.8162 125.772 71.2926 125.772 71.879V81.2797C125.772 84.5964 123.143 87.336 119.917 87.391C118.305 87.4185 116.784 86.8137 115.629 85.6868C114.475 84.5598 113.843 83.048 113.843 81.4354V70.6146C113.843 64.1459 119.102 58.8867 125.571 58.8867H150.639C157.108 58.8867 162.367 64.1459 162.367 70.6146V81.4354C162.367 83.048 161.735 84.5598 160.58 85.6868C159.453 86.7954 157.978 87.4001 156.402 87.4001ZM156.347 84.6239C156.366 84.6239 156.384 84.6239 156.411 84.6239C157.254 84.6239 158.042 84.3032 158.638 83.7077C159.252 83.103 159.591 82.2967 159.591 81.4354V70.6146C159.591 65.6852 155.578 61.6629 150.639 61.6629H125.571C120.641 61.6629 116.619 65.6761 116.619 70.6146V81.4354C116.619 82.2967 116.958 83.103 117.572 83.7077C118.186 84.3124 119.001 84.6331 119.862 84.6148C121.585 84.5873 122.987 83.0846 122.987 81.2797V71.879C122.987 69.7625 124.709 68.04 126.826 68.04H149.365C151.482 68.04 153.204 69.7625 153.204 71.879V81.2797C153.223 83.0938 154.625 84.5873 156.347 84.6239Z" fill="#F06F8D"/>
<g opacity="0.5">
<path opacity="0.5" d="M156.182 63.6054C154.661 62.3959 152.737 61.6721 150.639 61.6721H125.571C120.632 61.6721 116.619 65.6761 116.619 70.6238V81.3621C116.619 81.8752 116.72 82.3975 116.949 82.8556C117.425 83.8085 118.305 84.4224 119.276 84.5873C118.846 84.0284 118.607 83.3595 118.607 82.6357V71.8149C118.607 66.8764 122.611 62.8632 127.559 62.8632H128.265C128.265 63.8528 129.062 64.6499 130.051 64.6499H136.41C137.399 64.6499 138.197 63.8528 138.197 62.8632H152.618C153.892 62.8632 155.092 63.1289 156.182 63.6054Z" fill="#FF7595"/>
</g>
<g opacity="0.5">
<path opacity="0.5" d="M155.202 82.4799V73.0793C155.202 71.2652 153.937 69.7442 152.242 69.3411C152.847 70.0191 153.213 70.9078 153.213 71.8882V81.2888C153.213 82.9472 154.395 84.3399 155.916 84.5873C155.477 84.0009 155.202 83.2679 155.202 82.4799Z" fill="white"/>
</g>
<path d="M199.301 185.291H76.9184C70.8804 185.291 65.9785 180.39 65.9785 174.352V94.9868C65.9785 87.666 71.9158 81.7288 79.2365 81.7288H196.992C204.313 81.7288 210.25 87.666 210.25 94.9868V174.352C210.241 180.399 205.339 185.291 199.301 185.291Z" fill="#FF7595"/>
<g opacity="0.2">
<path opacity="0.2" d="M149.21 140.038L205.862 117.132L206.512 116.848V94.391C206.512 87.849 201.189 82.5256 194.647 82.5256H178.521C179.126 90.6435 178.53 121.42 136.594 131.389L145.729 131.783L149.705 134.962L149.21 140.038Z" fill="#6D4C41"/>
</g>
<g opacity="0.2">
<path opacity="0.2" d="M83.8271 177.485C84.0196 177.494 84.2028 177.503 84.3952 177.513C84.212 177.503 84.0196 177.494 83.8271 177.485Z" fill="#6D4C41"/>
</g>
<g opacity="0.2">
<path opacity="0.2" d="M67.7939 176.376C68.6552 176.458 69.5073 176.532 70.3594 176.605C69.5073 176.532 68.6552 176.449 67.7939 176.376Z" fill="#6D4C41"/>
</g>
<g opacity="0.2">
<path opacity="0.2" d="M196.974 183.028C202.243 183.028 206.521 178.74 206.521 173.481V117.654L208.189 116.94L168.781 133.771C168.781 133.771 182.855 181.287 86.0907 177.586C80.41 177.412 74.3261 177.063 67.83 176.504C67.8117 176.459 67.8025 176.422 67.7842 176.376C68.8745 179.913 71.9714 182.57 75.7372 183.028H196.974Z" fill="#6D4C41"/>
</g>
<g opacity="0.2">
<path opacity="0.2" d="M79.0625 177.238C79.3832 177.256 79.7039 177.274 80.0337 177.293C79.713 177.274 79.3923 177.256 79.0625 177.238Z" fill="#6D4C41"/>
</g>
<g opacity="0.2">
<path opacity="0.2" d="M81.4824 177.375C81.7481 177.393 82.0138 177.403 82.2795 177.412C82.0138 177.403 81.7481 177.384 81.4824 177.375Z" fill="#6D4C41"/>
</g>
<g opacity="0.2">
<path opacity="0.2" d="M71.3115 176.678C71.8338 176.724 72.3469 176.761 72.86 176.807C72.3469 176.761 71.8338 176.724 71.3115 176.678Z" fill="#6D4C41"/>
</g>
<g opacity="0.2">
<path opacity="0.2" d="M76.2867 183.083C76.1034 183.065 75.9202 183.056 75.7461 183.028C75.9202 183.046 76.1034 183.074 76.2867 183.083Z" fill="#6D4C41"/>
</g>
<g opacity="0.2">
<path opacity="0.2" d="M74.0332 176.889C74.4638 176.926 74.8945 176.954 75.3159 176.981C74.8853 176.954 74.4638 176.926 74.0332 176.889Z" fill="#6D4C41"/>
</g>
<g opacity="0.2">
<path opacity="0.2" d="M76.5889 177.073C76.9645 177.1 77.331 177.118 77.7067 177.146C77.3402 177.127 76.9645 177.1 76.5889 177.073Z" fill="#6D4C41"/>
</g>
<g opacity="0.5">
<path opacity="0.5" d="M82.4069 84.7156H91.4777C92.7146 86.4565 95.9123 87.6934 99.6689 87.6934C103.425 87.6934 106.623 86.4565 107.86 84.7156H200.162C202.114 84.7156 203.955 85.1921 205.577 86.0258C203.415 83.7536 200.364 82.3242 196.983 82.3242H108.272H91.0562H79.2276C72.6764 82.3242 67.3622 87.6384 67.3622 94.1895V110.911C67.3164 110.893 67.2889 110.874 67.2798 110.874L66.1895 115.098L67.3622 115.62V173.563C67.3622 177.403 69.6345 180.71 72.9055 182.231C71.4304 180.554 70.5416 178.355 70.5416 175.946V117.022L126.57 141.807L126.982 139.901C126.982 139.901 87.4829 120.669 72.7406 113.513C71.3937 112.863 70.5416 111.497 70.5416 110.004V96.5809C70.5416 90.0298 75.8558 84.7156 82.4069 84.7156Z" fill="#D9AAE3"/>
</g>
<path d="M199.301 185.887H76.9185C70.12 185.887 64.5859 180.353 64.5859 173.554V94.1985C64.5859 86.1265 71.1554 79.5479 79.2366 79.5479H196.992C205.064 79.5479 211.643 86.1173 211.643 94.1985V173.554C211.633 180.362 206.099 185.887 199.301 185.887ZM79.2366 82.3332C72.6947 82.3332 67.3713 87.6566 67.3713 94.1985V173.554C67.3713 178.822 71.6593 183.101 76.9185 183.101H199.301C204.569 183.101 208.848 178.813 208.848 173.554V94.1985C208.848 87.6566 203.525 82.3332 196.983 82.3332H79.2366Z" fill="#F06F8D"/>
<path d="M147.478 143.804H128.732C128.567 143.804 128.411 143.767 128.265 143.712L66.7668 117.416C66.1621 117.16 65.8781 116.454 66.1438 115.85C66.4003 115.245 67.1058 114.961 67.7105 115.227L128.989 141.431H147.24L208.518 115.227C209.123 114.97 209.819 115.245 210.085 115.85C210.342 116.454 210.067 117.151 209.462 117.416L147.964 143.712C147.799 143.777 147.643 143.804 147.478 143.804Z" fill="#AF0029"/>
<g opacity="0.2">
<path opacity="0.2" d="M146.222 131.948H134.513C130.839 131.948 127.852 134.935 127.852 138.609V159.994C127.852 163.091 130.371 165.601 133.459 165.601H147.276C150.373 165.601 152.883 163.082 152.883 159.994V138.609C152.892 134.935 149.896 131.948 146.222 131.948Z" fill="#6D4C41"/>
</g>
<path d="M144.894 162.623H131.077C128.75 162.623 126.854 160.736 126.854 158.4V137.024C126.854 134.11 129.217 131.755 132.122 131.755H143.831C146.745 131.755 149.1 134.119 149.1 137.024V158.409C149.118 160.736 147.222 162.623 144.894 162.623Z" fill="#F582A9"/>
<g opacity="0.5">
<path opacity="0.5" d="M149.082 156.018V152.93C149.082 152.93 136.319 153.452 130.235 153.608V138.609C130.235 136.511 131.902 134.807 133.982 134.733C134.422 135.549 135.787 136.153 137.409 136.153C139.031 136.153 140.405 135.549 140.836 134.724H145.829C146.287 134.724 146.718 134.807 147.121 134.953C146.434 133.863 145.225 133.139 143.841 133.139H140.46C139.837 132.562 138.701 132.177 137.409 132.177C136.117 132.177 134.981 132.562 134.358 133.139H132.141C129.997 133.139 128.256 134.88 128.256 137.024V153.654C127.541 153.663 127.11 153.663 127.083 153.635V156.018H128.256V158.409C128.256 159.774 129.218 160.91 130.501 161.176C130.336 160.819 130.235 160.416 130.235 159.994V156.018H149.082Z" fill="#C97CDC"/>
</g>
<path d="M144.894 164.016H131.077C127.98 164.016 125.47 161.496 125.47 158.409V137.024C125.47 133.349 128.457 130.363 132.131 130.363H143.84C147.514 130.363 150.501 133.349 150.501 137.024V158.409C150.501 161.496 147.991 164.016 144.894 164.016ZM132.131 133.139C129.987 133.139 128.246 134.88 128.246 137.024V158.409C128.246 159.966 129.52 161.24 131.077 161.24H144.894C146.452 161.24 147.725 159.966 147.725 158.409V137.024C147.725 134.88 145.984 133.139 143.84 133.139H132.131Z" fill="#AE022E"/>
<path d="M148.651 153.974H126.863C126.313 153.974 125.873 153.525 125.873 152.985C125.873 152.444 126.322 151.995 126.863 151.995H148.651C149.201 151.995 149.64 152.444 149.64 152.985C149.64 153.525 149.201 153.974 148.651 153.974Z" fill="#AE022E"/>
<path d="M138.004 145.691C140.089 145.691 141.779 144.001 141.779 141.917C141.779 139.832 140.089 138.142 138.004 138.142C135.92 138.142 134.229 139.832 134.229 141.917C134.229 144.001 135.92 145.691 138.004 145.691Z" fill="#AE022E"/>
<g opacity="0.2">
<path opacity="0.2" d="M66.6936 121.851L126.286 147.276L126.359 141.028L66.3271 116.124L66.6936 121.851Z" fill="#9234AA"/>
</g>
<g opacity="0.2">
<path opacity="0.2" d="M209.305 121.851L149.722 147.276L149.64 141.028L209.672 116.124L209.305 121.851Z" fill="#9234AA"/>
</g>
<g opacity="0.2">
<path opacity="0.2" d="M144.161 132.186C144.161 132.186 144.959 149.265 127.477 150.456L125.892 152.838H149.723C149.723 152.838 149.375 137.867 149.549 137.409C149.723 136.95 146.544 132.186 144.161 132.186Z" fill="#B664C8"/>
</g>
<g opacity="0.2">
<path opacity="0.2" d="M142.566 152.838C142.566 152.838 141.137 160.782 126.679 159.591L130.06 162.174L146.818 162.312L149.127 159.792L148.65 152.975L142.566 152.838Z" fill="#6D4C41"/>
</g>
<g opacity="0.15">
<path opacity="0.15" d="M126.68 112.322H101.657C97.4883 112.322 94.1074 108.941 94.1074 104.772C94.1074 100.603 97.4883 97.2224 101.657 97.2224H126.68C130.849 97.2224 134.23 100.603 134.23 104.772C134.23 108.941 130.849 112.322 126.68 112.322Z" fill="white"/>
</g>
<g opacity="0.2">
<path opacity="0.2" d="M124.893 68.4248C124.893 68.4248 118.937 75.9746 115.758 75.9746V80.3451L124.096 80.7391L124.893 68.4248Z" fill="#6D4C41"/>
</g>
<g opacity="0.2">
<path opacity="0.2" d="M151.308 59.8853C151.308 59.8853 146.938 68.6262 129.456 68.8186L151.107 69.6157C151.107 69.6157 150.85 80.5648 151.776 80.4549C152.701 80.3449 161.442 81.536 161.442 80.7389C161.442 79.9418 160.645 66.4364 160.645 66.4364L151.308 59.8853Z" fill="#FF7595"/>
</g>
<g opacity="0.2">
<path opacity="0.2" d="M225.78 176.083C224.928 175.231 223.801 174.754 222.6 174.754L216.782 174.736C216.755 174.736 216.736 174.727 216.709 174.727L170.366 174.553C170.21 174.544 170.072 174.58 169.935 174.626L157.831 179.226C157.364 179.4 157.053 179.858 157.062 180.352C157.071 180.856 157.382 181.296 157.859 181.461L169.926 185.722C170.054 185.767 170.182 185.786 170.32 185.786L214.373 185.951C214.4 185.951 214.418 185.96 214.446 185.96L222.555 185.987C222.564 185.987 222.564 185.987 222.573 185.987C223.773 185.987 224.891 185.52 225.743 184.677C226.595 183.825 227.072 182.698 227.072 181.498L227.081 179.262C227.09 178.062 226.632 176.935 225.78 176.083Z" fill="#6D4C41"/>
</g>
<path d="M75.4095 179.05C75.2048 179.05 75 166.311 75 151.025C75 135.42 75.2048 123 75.4095 123C75.6143 123 75.8191 135.739 75.8191 151.025C75.8191 166.311 75.6143 179.05 75.4095 179.05Z" fill="#FAFAFA"/>
<path d="M203.435 87.025C203.435 87.2298 190.696 87.4346 175.41 87.4346C159.805 87.4346 147.385 87.2298 147.385 87.025C147.385 86.8203 160.123 86.6155 175.41 86.6155C190.696 86.6155 203.435 86.8203 203.435 87.025Z" fill="#FAFAFA"/>
<path d="M2.19898 118.406C3.41344 118.406 4.39795 117.421 4.39795 116.207C4.39795 114.993 3.41344 114.008 2.19898 114.008C0.984516 114.008 0 114.993 0 116.207C0 117.421 0.984516 118.406 2.19898 118.406Z" fill="#FF7897"/>
<path d="M267.388 165.895C268.789 165.895 269.926 164.758 269.926 163.357C269.926 161.955 268.789 160.819 267.388 160.819C265.986 160.819 264.85 161.955 264.85 163.357C264.85 164.758 265.986 165.895 267.388 165.895Z" fill="#FF7897"/>
<path d="M270.034 79.6854C271.203 79.6854 272.151 78.7378 272.151 77.5689C272.151 76.4 271.203 75.4524 270.034 75.4524C268.866 75.4524 267.918 76.4 267.918 77.5689C267.918 78.7378 268.866 79.6854 270.034 79.6854Z" fill="#FF7897"/>
<path d="M106.953 33.2779C108.805 33.2779 110.306 31.7765 110.306 29.9245C110.306 28.0724 108.805 26.571 106.953 26.571C105.101 26.571 103.6 28.0724 103.6 29.9245C103.6 31.7765 105.101 33.2779 106.953 33.2779Z" fill="#FF7897"/>
<path d="M88.555 46.105C89.7644 46.105 90.7449 45.1246 90.7449 43.9152C90.7449 42.7058 89.7644 41.7253 88.555 41.7253C87.3456 41.7253 86.3652 42.7058 86.3652 43.9152C86.3652 45.1246 87.3456 46.105 88.555 46.105Z" fill="#FF7897"/>
<g clip-path="url(#clip0_408_338)">
<path d="M184 182C179.847 182 175.786 180.768 172.333 178.461C168.88 176.153 166.188 172.874 164.599 169.036C163.009 165.199 162.593 160.977 163.404 156.903C164.214 152.83 166.214 149.088 169.151 146.151C172.088 143.214 175.83 141.214 179.903 140.404C183.977 139.593 188.199 140.009 192.036 141.599C195.874 143.188 199.153 145.88 201.461 149.333C203.768 152.786 205 156.847 205 161C205 166.57 202.788 171.911 198.849 175.849C194.911 179.788 189.57 182 184 182ZM184 143.5C180.539 143.5 177.155 144.526 174.278 146.449C171.4 148.372 169.157 151.105 167.832 154.303C166.508 157.501 166.161 161.019 166.836 164.414C167.512 167.809 169.178 170.927 171.626 173.374C174.073 175.822 177.191 177.489 180.586 178.164C183.981 178.839 187.499 178.492 190.697 177.168C193.895 175.843 196.628 173.6 198.551 170.722C200.474 167.845 201.5 164.461 201.5 161C201.5 158.702 201.047 156.426 200.168 154.303C199.288 152.18 197.999 150.251 196.374 148.626C194.749 147.001 192.82 145.712 190.697 144.832C188.574 143.953 186.298 143.5 184 143.5Z" fill="white"/>
<path d="M184 167C187.314 167 190 164.314 190 161C190 157.686 187.314 155 184 155C180.686 155 178 157.686 178 161C178 164.314 180.686 167 184 167Z" fill="white"/>
<path d="M184 150C177.925 150 173 154.925 173 161C173 167.075 177.925 172 184 172C190.075 172 195 167.075 195 161C195 154.925 190.075 150 184 150ZM184 169.281C179.427 169.281 175.719 165.573 175.719 161C175.719 156.427 179.427 152.719 184 152.719C188.573 152.719 192.281 156.427 192.281 161C192.281 165.573 188.573 169.281 184 169.281Z" fill="white"/>
</g>
<defs>
<clipPath id="clip0_408_338">
<rect width="42" height="42" fill="white" transform="translate(163 140)"/>
</clipPath>
</defs>
</svg>
